<?xml version="1.0" encoding="utf-8"?>
<!-- Generator: Adobe Illustrator 24.0.2, SVG Export Plug-In . SVG Version: 6.00 Build 0)  -->
<svg version="1.1" id="Layer_1" xmlns="http://www.w3.org/2000/svg" xmlns:xlink="http://www.w3.org/1999/xlink" x="0px" y="0px"
	 viewBox="0 0 3 3" style="enable-background:new 0 0 3 3;" xml:space="preserve">
<style type="text/css">
	.st0{fill:none;}
	.st1{fill-rule:evenodd;clip-rule:evenodd;fill:#4460A0;}
</style>
<g id="_x31__stroke">
	<g id="Facebook_1_">
		<rect x="0" y="0" class="st0" width="3" height="3"/>
		<path id="Facebook" class="st1" d="M1.6,3H0.2C0.1,3,0,2.9,0,2.8V0.2C0,0.1,0.1,0,0.2,0h2.6C2.9,0,3,0.1,3,0.2v2.7
			C3,2.9,2.9,3,2.8,3H2V1.8h0.4l0.1-0.4H2V1.1c0-0.1,0-0.2,0.2-0.2h0.2V0.5c0,0-0.2,0-0.3,0c-0.3,0-0.6,0.2-0.6,0.6v0.3H1.2v0.4h0.4
			L1.6,3L1.6,3z"/>
	</g>
</g>
</svg>
