<?xml version="1.0" encoding="utf-8"?>
<!-- Generator: Adobe Illustrator 24.0.2, SVG Export Plug-In . SVG Version: 6.00 Build 0)  -->
<svg version="1.1" id="Layer_1" xmlns="http://www.w3.org/2000/svg" xmlns:xlink="http://www.w3.org/1999/xlink" x="0px" y="0px"
	 viewBox="0 0 3 3" style="enable-background:new 0 0 3 3;" xml:space="preserve">
<style type="text/css">
	.st0{fill:none;}
	.st1{fill-rule:evenodd;clip-rule:evenodd;fill:url(#Instagram_2_);}
</style>
<g id="_x37__stroke">
	<g id="Instagram_1_">
		<rect x="0" y="0" class="st0" width="3" height="3"/>
		
			<radialGradient id="Instagram_2_" cx="0.4248" cy="3.0523" r="3.8512" gradientTransform="matrix(0.9843 0 0 0.988 4.722081e-02 7.636102e-05)" gradientUnits="userSpaceOnUse">
			<stop  offset="0" style="stop-color:#FFB140"/>
			<stop  offset="0.2559" style="stop-color:#FF5445"/>
			<stop  offset="0.599" style="stop-color:#FC2B82"/>
			<stop  offset="1" style="stop-color:#8E40B7"/>
		</radialGradient>
		<path id="Instagram" class="st1" d="M2.5,0.7c0,0.1-0.1,0.2-0.2,0.2S2.1,0.8,2.1,0.7s0.1-0.2,0.2-0.2S2.5,0.6,2.5,0.7z M1.5,2
			C1.2,2,1,1.8,1,1.5C1,1.2,1.2,1,1.5,1S2,1.2,2,1.5C2,1.8,1.8,2,1.5,2z M1.5,0.7c-0.4,0-0.8,0.4-0.8,0.8c0,0.4,0.4,0.8,0.8,0.8
			c0.4,0,0.8-0.4,0.8-0.8S1.9,0.7,1.5,0.7z M1.5,0.3c0.4,0,0.4,0,0.6,0c0.1,0,0.2,0,0.3,0c0.1,0,0.1,0.1,0.2,0.1
			c0,0,0.1,0.1,0.1,0.2c0,0,0,0.1,0,0.3c0,0.1,0,0.2,0,0.6c0,0.4,0,0.4,0,0.6c0,0.1,0,0.2,0,0.3c0,0.1-0.1,0.1-0.1,0.2
			c0,0-0.1,0.1-0.2,0.1c0,0-0.1,0-0.3,0s-0.2,0-0.6,0c-0.4,0-0.4,0-0.6,0c-0.1,0-0.2,0-0.3,0c-0.1,0-0.1-0.1-0.2-0.1
			c0,0-0.1-0.1-0.1-0.2c0,0,0-0.1,0-0.3c0-0.1,0-0.2,0-0.6c0-0.4,0-0.4,0-0.6c0-0.1,0-0.2,0-0.3c0-0.1,0.1-0.1,0.1-0.2
			c0,0,0.1-0.1,0.2-0.1c0,0,0.1,0,0.3,0C1.1,0.3,1.1,0.3,1.5,0.3z M1.5,0C1.1,0,1,0,0.9,0s-0.3,0-0.4,0.1c-0.1,0-0.2,0.1-0.3,0.2
			S0.1,0.5,0.1,0.5C0.1,0.6,0,0.7,0,0.9s0,0.2,0,0.6C0,1.9,0,2,0,2.1c0,0.1,0,0.3,0.1,0.4c0,0.1,0.1,0.2,0.2,0.3s0.2,0.1,0.3,0.2
			C0.6,2.9,0.8,3,0.9,3s0.2,0,0.6,0C1.9,3,2,3,2.1,3c0.1,0,0.3,0,0.4-0.1c0.1,0,0.2-0.1,0.3-0.2c0.1-0.1,0.1-0.2,0.2-0.3
			C2.9,2.4,3,2.3,3,2.1C3,2,3,1.9,3,1.5C3,1.1,3,1,3,0.9s0-0.3-0.1-0.4S2.8,0.3,2.7,0.3S2.5,0.1,2.5,0.1C2.4,0.1,2.3,0,2.1,0
			C2,0,1.9,0,1.5,0z"/>
	</g>
</g>
</svg>
