<?xml version="1.0" encoding="utf-8"?>
<!-- Generator: Adobe Illustrator 24.0.2, SVG Export Plug-In . SVG Version: 6.00 Build 0)  -->
<svg version="1.1" id="Layer_1" xmlns="http://www.w3.org/2000/svg" xmlns:xlink="http://www.w3.org/1999/xlink" x="0px" y="0px"
	 viewBox="0 0 3 3" style="enable-background:new 0 0 3 3;" xml:space="preserve">
<style type="text/css">
	.st0{fill:#00AADE;}
</style>
<path class="st0" d="M2.5,0H0.5C0.3,0,0,0.2,0,0.5v1.9C0,2.7,0.2,3,0.5,3h1.9C2.8,3,3,2.8,3,2.5V0.5C3,0.2,2.8,0,2.5,0z M2.3,1.1
	c-0.1,1.2-1.2,1.3-1.7,1c0.3,0,0.6-0.1,0.6-0.2C1,1.9,0.8,1.8,0.8,1.6c0,0,0.1,0,0.1,0C0.6,1.5,0.7,1.3,0.7,1.3c0,0,0.2,0,0.2,0
	C0.5,1.1,0.8,0.8,0.8,0.8C0.9,1,1.2,1.2,1.5,1.2l0,0c0-0.1,0-0.3,0.1-0.4c0.1-0.1,0.4-0.1,0.5,0c0,0,0.1,0,0.2-0.1
	c0,0.1-0.1,0.2-0.2,0.2l0.2-0.1L2.3,1.1z"/>
</svg>
